HIERARCHY
ROOT Hips
{
	OFFSET 0.000000 35.082581 0.000000
	CHANNELS 6 Xposition Yposition Zposition Xrotation Yrotation Zrotation 
	JOINT Spine
	{
		OFFSET 0.000000 6.876099 0.125700
		CHANNELS 3 Xrotation Yrotation Zrotation
		JOINT Spine1
		{
			OFFSET 0.000000 5.730043 0.104720
			CHANNELS 3 Xrotation Yrotation Zrotation
			JOINT Spine1_split
			{
				OFFSET 0.000000 5.730043 0.104720
				CHANNELS 3 Xrotation Yrotation Zrotation
				JOINT Spine2
				{
					OFFSET 0.000000 5.730043 0.104720
					CHANNELS 3 Xrotation Yrotation Zrotation
					JOINT Neck
					{
						OFFSET 0.000000 10.314075 0.188496
						CHANNELS 3 Xrotation Yrotation Zrotation
						JOINT Head
						{
							OFFSET 0.000000 7.643700 -2.377400
							CHANNELS 3 Xrotation Yrotation Zrotation
							JOINT HeadTop_End
							{
								OFFSET 0.000000 43.788605 -13.619600
								CHANNELS 3 Xrotation Yrotation Zrotation
								End Site
								{
									OFFSET 0.000000 0.000000 0.000000
								}
							}
						}
					}
					JOINT LeftShoulder
					{
						OFFSET 2.196100 4.412489 0.087492
						CHANNELS 3 Xrotation Yrotation Zrotation
						JOINT LeftShoulder_split
						{
							OFFSET 2.196100 4.412489 0.087492
							CHANNELS 3 Xrotation Yrotation Zrotation
							JOINT LeftArm
							{
								OFFSET 8.771219 -2.981674 -0.026999
								CHANNELS 3 Xrotation Yrotation Zrotation
								JOINT LeftForeArm
								{
									OFFSET 8.512804 0.000000 -0.000000
									CHANNELS 3 Xrotation Yrotation Zrotation
									JOINT LeftHand
									{
										OFFSET 18.484802 0.000000 -0.000000
										CHANNELS 3 Xrotation Yrotation Zrotation
										JOINT LeftHandThumb1
										{
											OFFSET 2.499420 -1.158070 2.653252
											CHANNELS 3 Xrotation Yrotation Zrotation
											JOINT LeftHandThumb2
											{
												OFFSET 2.370079 -1.368366 1.368366
												CHANNELS 3 Xrotation Yrotation Zrotation
												JOINT LeftHandThumb3
												{
													OFFSET 2.676727 -1.545410 1.545409
													CHANNELS 3 Xrotation Yrotation Zrotation
													JOINT LeftHandThumb4
													{
														OFFSET 1.692226 -0.977005 0.977007
														CHANNELS 3 Xrotation Yrotation Zrotation
														End Site
														{
															OFFSET 0.000000 0.000000 0.000000
														}
													}
												}
											}
										}
										JOINT LeftHandIndex1
										{
											OFFSET 7.924831 -0.457527 2.345128
											CHANNELS 3 Xrotation Yrotation Zrotation
											JOINT LeftHandIndex2
											{
												OFFSET 3.643303 0.000000 0.000000
												CHANNELS 3 Xrotation Yrotation Zrotation
												JOINT LeftHandIndex3
												{
													OFFSET 3.810799 0.000000 0.000000
													CHANNELS 3 Xrotation Yrotation Zrotation
													JOINT LeftHandIndex4
													{
														OFFSET 2.403702 0.000000 0.000000
														CHANNELS 3 Xrotation Yrotation Zrotation
														End Site
														{
															OFFSET 0.000000 0.000000 0.000000
														}
													}
												}
											}
										}
										JOINT LeftHandMiddle1
										{
											OFFSET 8.563995 0.000000 -0.000000
											CHANNELS 3 Xrotation Yrotation Zrotation
											JOINT LeftHandMiddle2
											{
												OFFSET 3.861618 0.000000 0.000000
												CHANNELS 3 Xrotation Yrotation Zrotation
												JOINT LeftHandMiddle3
												{
													OFFSET 3.701603 0.000000 0.000000
													CHANNELS 3 Xrotation Yrotation Zrotation
													JOINT LeftHandMiddle4
													{
														OFFSET 2.322544 0.000000 0.000000
														CHANNELS 3 Xrotation Yrotation Zrotation
														End Site
														{
															OFFSET 0.000000 0.000000 0.000000
														}
													}
												}
											}
										}
										JOINT LeftHandRing1
										{
											OFFSET 8.426460 -0.424637 -3.286992
											CHANNELS 3 Xrotation Yrotation Zrotation
											JOINT LeftHandRing2
											{
												OFFSET 3.126408 0.000000 0.000000
												CHANNELS 3 Xrotation Yrotation Zrotation
												JOINT LeftHandRing3
												{
													OFFSET 3.085026 0.000000 0.000000
													CHANNELS 3 Xrotation Yrotation Zrotation
													JOINT LeftHandRing4
													{
														OFFSET 1.644005 0.000000 0.000000
														CHANNELS 3 Xrotation Yrotation Zrotation
														End Site
														{
															OFFSET 0.000000 0.000000 0.000000
														}
													}
												}
											}
										}
									}
								}
							}
						}
					}
					JOINT RightShoulder
					{
						OFFSET -2.196100 4.412496 0.070690
						CHANNELS 3 Xrotation Yrotation Zrotation
						JOINT RightShoulder_split
						{
							OFFSET -2.196100 4.412496 0.070690
							CHANNELS 3 Xrotation Yrotation Zrotation
							JOINT RightArm
							{
								OFFSET -8.771282 -2.981682 -0.094208
								CHANNELS 3 Xrotation Yrotation Zrotation
								JOINT RightForeArm
								{
									OFFSET -8.494598 0.000000 0.000000
									CHANNELS 3 Xrotation Yrotation Zrotation
									JOINT RightHand
									{
										OFFSET -18.483803 0.000000 0.000001
										CHANNELS 3 Xrotation Yrotation Zrotation
										JOINT RightHandThumb1
										{
											OFFSET -2.527351 -1.008072 2.575253
											CHANNELS 3 Xrotation Yrotation Zrotation
											JOINT RightHandThumb2
											{
												OFFSET -2.321518 -1.340328 1.340329
												CHANNELS 3 Xrotation Yrotation Zrotation
												JOINT RightHandThumb3
												{
													OFFSET -2.657753 -1.534454 1.534455
													CHANNELS 3 Xrotation Yrotation Zrotation
													JOINT RightHandThumb4
													{
														OFFSET -1.807510 -1.043568 1.043567
														CHANNELS 3 Xrotation Yrotation Zrotation
														End Site
														{
															OFFSET 0.000000 0.000000 0.000000
														}
													}
												}
											}
										}
										JOINT RightHandIndex1
										{
											OFFSET -8.811420 0.015533 2.887987
											CHANNELS 3 Xrotation Yrotation Zrotation
											JOINT RightHandIndex2
											{
												OFFSET -3.537502 0.000000 0.000000
												CHANNELS 3 Xrotation Yrotation Zrotation
												JOINT RightHandIndex3
												{
													OFFSET -3.356201 0.000000 0.000000
													CHANNELS 3 Xrotation Yrotation Zrotation
													JOINT RightHandIndex4
													{
														OFFSET -1.933098 0.000000 0.000000
														CHANNELS 3 Xrotation Yrotation Zrotation
														End Site
														{
															OFFSET 0.000000 0.000000 0.000000
														}
													}
												}
											}
										}
										JOINT RightHandMiddle1
										{
											OFFSET -8.178135 0.000000 0.000000
											CHANNELS 3 Xrotation Yrotation Zrotation
											JOINT RightHandMiddle2
											{
												OFFSET -3.901302 0.000000 0.000000
												CHANNELS 3 Xrotation Yrotation Zrotation
												JOINT RightHandMiddle3
												{
													OFFSET -3.909599 0.000000 0.000000
													CHANNELS 3 Xrotation Yrotation Zrotation
													JOINT RightHandMiddle4
													{
														OFFSET -2.376003 0.000000 0.000000
														CHANNELS 3 Xrotation Yrotation Zrotation
														End Site
														{
															OFFSET 0.000000 0.000000 0.000000
														}
													}
												}
											}
										}
										JOINT RightHandRing1
										{
											OFFSET -7.559013 0.014137 -2.865403
											CHANNELS 3 Xrotation Yrotation Zrotation
											JOINT RightHandRing2
											{
												OFFSET -3.449306 0.000000 0.000000
												CHANNELS 3 Xrotation Yrotation Zrotation
												JOINT RightHandRing3
												{
													OFFSET -3.362106 0.000000 0.000000
													CHANNELS 3 Xrotation Yrotation Zrotation
													JOINT RightHandRing4
													{
														OFFSET -2.076401 0.000000 0.000000
														CHANNELS 3 Xrotation Yrotation Zrotation
														End Site
														{
															OFFSET 0.000000 0.000000 0.000000
														}
													}
												}
											}
										}
									}
								}
							}
						}
					}
				}
			}
		}
	}
	JOINT LeftUpLeg
	{
		OFFSET 10.205400 -3.823500 0.155100
		CHANNELS 3 Xrotation Yrotation Zrotation
		JOINT LeftLeg
		{
			OFFSET 0.708757 -12.982077 0.567790
			CHANNELS 3 Xrotation Yrotation Zrotation
			JOINT LeftFoot
			{
				OFFSET -0.708756 -10.717838 -2.184338
				CHANNELS 3 Xrotation Yrotation Zrotation
				JOINT LeftToeBase
				{
					OFFSET 0.108149 -7.191104 7.560241
					CHANNELS 3 Xrotation Yrotation Zrotation
					JOINT LeftToe_End
					{
						OFFSET 0.070230 0.081724 4.490308
						CHANNELS 3 Xrotation Yrotation Zrotation
						End Site
						{
							OFFSET 0.000000 0.000000 0.000000
						}
					}
				}
			}
		}
	}
	JOINT RightUpLeg
	{
		OFFSET -10.205400 -3.823500 0.005500
		CHANNELS 3 Xrotation Yrotation Zrotation
		JOINT RightLeg
		{
			OFFSET -0.708756 -12.982134 0.610632
			CHANNELS 3 Xrotation Yrotation Zrotation
			JOINT RightFoot
			{
				OFFSET 0.708754 -10.717769 -1.945823
				CHANNELS 3 Xrotation Yrotation Zrotation
				JOINT RightToeBase
				{
					OFFSET -0.108140 -7.191069 7.372968
					CHANNELS 3 Xrotation Yrotation Zrotation
					JOINT RightToe_End
					{
						OFFSET -0.070227 0.081735 4.479403
						CHANNELS 3 Xrotation Yrotation Zrotation
						End Site
						{
							OFFSET 0.000000 0.000000 0.000000
						}
					}
				}
			}
		}
	}
}
MOTION
Frames: 5
Frame Time: 0.016667
1.130339 32.903347 40.089592 -171.526445 67.100905 178.375800 10.476288 -3.594233 -6.331624 5.905957 -0.746144 -0.137394 0.000000 0.000000 0.000000 5.913740 -0.679945 -0.131285 -10.724005 -0.020887 2.039223 -4.215062 13.545542 -3.367738 0.000000 0.000001 0.000000 4.565337 8.264143 -9.764208 0.000000 0.000000 0.000000 -7.251017 -13.343455 -59.256501 -0.000003 -11.301082 -0.000000 9.160495 -15.323022 -1.192304 -3.469778 3.607313 7.883182 9.703640 22.223513 2.891185 -5.879069 9.699134 15.674871 -0.000001 0.000003 -0.000000 0.162358 3.429612 -10.498181 0.209644 1.554735 -15.358560 0.209658 1.554739 -15.358587 0.000000 0.000000 0.000000 0.362540 4.206375 -18.344227 0.474607 2.311794 -23.200226 0.474614 2.311800 -23.200240 0.000000 0.000000 -0.000002 0.689021 4.991711 -26.673262 0.865730 3.066787 -31.521449 0.865732 3.066784 -31.521449 -0.000000 -0.000000 0.000001 1.424812 6.319847 17.460079 0.000000 0.000000 0.000000 -2.214354 -4.391929 64.929868 0.000019 27.167067 -0.000001 -23.146951 -17.077647 -15.152672 -1.986187 -5.435654 -3.761593 8.766475 -20.697693 -3.062072 -5.504777 -5.510980 -14.718511 0.000003 -0.000002 -0.000002 2.057118 -6.108257 55.293561 5.419349 -4.594507 99.429386 3.163290 -4.411569 71.271275 -0.000000 0.000001 0.000000 2.592843 -6.426539 62.973436 4.946633 -4.648190 93.567315 3.098037 -4.388952 70.420569 -0.000001 -0.000000 -0.000000 2.854989 -6.549350 66.538603 4.919151 -4.649809 93.228223 2.921295 -4.322222 68.093926 -0.000001 -0.000001 0.000001 -29.012318 8.107759 9.437202 37.773156 2.601033 2.455214 -3.737944 2.315659 -16.905715 -1.861512 0.000007 -0.000003 -0.000000 -0.000003 0.000000 1.457606 -10.559114 -16.435525 35.730417 -6.302016 -1.924128 -31.500768 -9.895774 14.723747 -6.933363 0.000035 0.000012 -0.000001 -0.000000 -0.000000 
1.133237 32.819599 39.917175 -172.167076 65.202263 179.025651 10.517975 -3.568674 -6.532314 5.937757 -0.731591 -0.053679 0.000000 0.000000 0.000000 5.944721 -0.659882 -0.046722 -10.723271 -0.058149 2.025083 -4.160083 14.345673 -3.272149 0.000001 -0.000000 0.000000 4.439880 8.094344 -9.464019 0.000000 0.000000 0.000000 -6.237176 -11.834768 -59.241680 0.000003 -11.844602 0.000012 9.598135 -13.812542 -2.183880 -3.469778 3.607314 7.883184 9.703643 22.223515 2.891184 -5.879064 9.699133 15.674878 -0.000002 -0.000002 -0.000004 0.162359 3.429612 -10.498178 0.209644 1.554735 -15.358558 0.209657 1.554740 -15.358587 0.000000 -0.000000 -0.000002 0.362541 4.206375 -18.344225 0.474607 2.311794 -23.200232 0.474614 2.311800 -23.200235 0.000000 0.000000 -0.000004 0.689021 4.991711 -26.673260 0.865730 3.066787 -31.521443 0.865732 3.066785 -31.521449 -0.000000 -0.000000 -0.000000 1.440127 6.247020 17.504265 0.000000 0.000000 0.000000 -2.407550 -5.275744 64.582499 0.000010 26.607746 0.000001 -21.465323 -16.875369 -14.388029 -1.986193 -5.435652 -3.761587 8.766473 -20.697696 -3.062069 -5.504776 -5.510978 -14.718516 -0.000002 0.000002 0.000005 2.057117 -6.108253 55.293564 5.419347 -4.594507 99.429393 3.163289 -4.411568 71.271275 0.000001 -0.000000 -0.000001 2.592842 -6.426536 62.973443 4.946631 -4.648190 93.567315 3.098037 -4.388952 70.420569 0.000000 0.000000 -0.000002 2.854989 -6.549346 66.538603 4.919152 -4.649805 93.228216 2.921295 -4.322224 68.093919 0.000001 -0.000001 -0.000000 -28.911303 7.870292 9.627705 37.049791 3.542861 2.696685 -4.186777 2.741420 -16.422980 -1.662294 -0.000008 -0.000003 0.000000 -0.000002 0.000000 3.027628 -11.322528 -16.204754 34.742433 -6.268353 -1.932241 -31.645643 -11.509156 14.955980 -6.962909 0.000007 0.000002 0.000000 0.000000 -0.000000 
1.134042 32.729729 39.728462 -172.651131 63.308340 179.517616 10.588494 -3.523917 -6.752589 5.956439 -0.710476 0.027104 0.000000 0.000000 0.000000 5.962347 -0.633109 0.034882 -10.724163 -0.096658 2.008865 -4.103968 15.186878 -3.159079 -0.000000 0.000000 0.000000 4.315417 7.926133 -9.159290 0.000000 0.000000 0.000000 -5.366286 -10.439493 -59.331149 0.000002 -12.405909 0.000014 10.104737 -12.230443 -3.230661 -3.469780 3.607312 7.883176 9.703640 22.223518 2.891186 -5.879070 9.699133 15.674868 -0.000001 -0.000001 0.000003 0.162358 3.429613 -10.498183 0.209644 1.554735 -15.358558 0.209657 1.554740 -15.358589 -0.000000 -0.000000 -0.000000 0.362541 4.206375 -18.344228 0.474607 2.311794 -23.200232 0.474614 2.311800 -23.200238 -0.000000 0.000001 -0.000004 0.689022 4.991712 -26.673262 0.865729 3.066787 -31.521446 0.865732 3.066785 -31.521449 0.000001 0.000000 -0.000002 1.452237 6.186886 17.530502 0.000000 0.000000 0.000000 -2.514464 -6.093102 64.276165 0.000010 26.010586 -0.000000 -19.830691 -16.637571 -13.686404 -1.986190 -5.435651 -3.761588 8.766475 -20.697688 -3.062069 -5.504773 -5.510980 -14.718515 -0.000001 -0.000005 -0.000003 2.057118 -6.108256 55.293564 5.419348 -4.594510 99.429393 3.163286 -4.411567 71.271275 0.000001 -0.000001 0.000000 2.592843 -6.426539 62.973436 4.946632 -4.648188 93.567308 3.098033 -4.388951 70.420575 -0.000001 -0.000003 -0.000003 2.854989 -6.549350 66.538603 4.919151 -4.649809 93.228216 2.921296 -4.322224 68.093926 0.000002 -0.000002 -0.000001 -28.729835 7.570761 9.755068 36.207902 4.282345 2.887582 -4.434344 3.266452 -15.978183 -1.559820 0.000004 -0.000003 0.000000 0.000001 -0.000000 4.706402 -12.107134 -15.942027 33.620660 -6.252211 -1.935619 -31.713757 -13.091066 15.233922 -6.986591 0.000046 0.000014 -0.000000 0.000000 -0.000000 
1.132658 32.635132 39.525532 -173.030057 61.428638 179.905065 10.672076 -3.463395 -6.987917 5.960720 -0.683458 0.099999 0.000000 0.000000 0.000000 5.965378 -0.600654 0.108449 -10.728269 -0.136327 1.990619 -4.053719 16.057583 -3.028831 0.000000 0.000003 -0.000000 4.191124 7.756946 -8.850431 0.000000 0.000000 0.000000 -4.627763 -9.151169 -59.511746 0.000001 -12.942805 0.000013 10.682208 -10.597879 -4.326570 -3.469777 3.607314 7.883182 9.703641 22.223513 2.891186 -5.879070 9.699136 15.674871 -0.000001 -0.000002 -0.000004 0.162358 3.429612 -10.498180 0.209644 1.554735 -15.358558 0.209657 1.554739 -15.358589 0.000000 0.000000 0.000001 0.362541 4.206374 -18.344228 0.474606 2.311794 -23.200228 0.474614 2.311800 -23.200237 0.000000 -0.000000 -0.000002 0.689020 4.991711 -26.673262 0.865730 3.066787 -31.521443 0.865733 3.066786 -31.521449 0.000000 0.000000 0.000000 1.460389 6.141555 17.531912 0.000000 0.000000 0.000000 -2.497080 -6.813983 64.020347 0.000000 25.388734 0.000022 -18.293285 -16.391190 -13.073733 -1.986195 -5.435656 -3.761591 8.766472 -20.697696 -3.062070 -5.504778 -5.510977 -14.718515 0.000001 -0.000003 -0.000000 2.057118 -6.108257 55.293561 5.419350 -4.594506 99.429386 3.163286 -4.411568 71.271275 0.000001 0.000000 -0.000001 2.592842 -6.426540 62.973436 4.946633 -4.648190 93.567315 3.098034 -4.388953 70.420575 -0.000001 -0.000000 -0.000003 2.854988 -6.549348 66.538596 4.919147 -4.649808 93.228223 2.921295 -4.322221 68.093919 -0.000001 0.000001 -0.000002 -28.484438 7.240459 9.823875 35.293971 4.852273 3.030122 -4.460286 3.886799 -15.669045 -1.568511 -0.000007 -0.000001 0.000000 0.000005 0.000000 6.500770 -12.912230 -15.635758 32.329218 -6.254046 -1.936146 -31.700274 -14.650039 15.556299 -6.991931 0.000003 -0.000007 -0.000000 -0.000000 0.000000 
1.129227 32.537746 39.309345 -173.344477 59.570034 180.229636 10.753052 -3.392104 -7.231466 5.949799 -0.652316 0.160540 0.000000 0.000000 0.000000 5.953075 -0.564614 0.169437 -10.734681 -0.177071 1.970378 -4.013793 16.945793 -2.882280 0.000000 0.000002 0.000000 4.066043 7.584043 -8.539703 0.000000 0.000000 0.000000 -4.007996 -7.960452 -59.768984 0.000021 -13.413238 0.000000 11.330647 -8.935688 -5.465151 -3.469778 3.607307 7.883182 9.703643 22.223516 2.891185 -5.879070 9.699134 15.674868 -0.000001 0.000001 -0.000002 0.162359 3.429612 -10.498180 0.209646 1.554735 -15.358558 0.209656 1.554740 -15.358594 -0.000001 0.000000 0.000001 0.362541 4.206375 -18.344232 0.474607 2.311795 -23.200230 0.474613 2.311800 -23.200237 -0.000000 -0.000000 -0.000001 0.689023 4.991712 -26.673260 0.865729 3.066787 -31.521443 0.865733 3.066785 -31.521453 -0.000001 -0.000000 0.000000 1.464168 6.111484 17.503850 0.000000 0.000000 0.000000 -2.336167 -7.415556 63.819969 0.000007 24.739471 0.000004 -16.891336 -16.157441 -12.566085 -1.986191 -5.435649 -3.761583 8.766474 -20.697693 -3.062069 -5.504779 -5.510977 -14.718515 0.000002 0.000001 -0.000003 2.057118 -6.108255 55.293564 5.419350 -4.594508 99.429393 3.163285 -4.411567 71.271275 0.000001 -0.000000 0.000001 2.592845 -6.426537 62.973443 4.946633 -4.648196 93.567308 3.098036 -4.388953 70.420575 -0.000002 0.000000 0.000000 2.854991 -6.549347 66.538603 4.919151 -4.649810 93.228216 2.921296 -4.322223 68.093919 -0.000000 -0.000000 0.000002 -28.188146 6.904064 9.840038 34.334077 5.305936 3.129880 -4.229546 4.577653 -15.581258 -1.652549 0.000018 0.000000 0.000000 -0.000005 -0.000000 8.417661 -13.738336 -15.274028 30.823892 -6.254104 -1.933841 -31.589802 -16.203567 15.904505 -6.974678 0.000038 0.000004 0.000001 -0.000000 0.000000 
